G04 Layer: BottomLayer*
G04 EasyEDA v6.1.41, Mon, 03 Jun 2019 03:14:34 GMT*
G04 5a90bc5d05c24feeabf61e1713a7abd1,f719cc3b5e9d4f31bc15a5958a6a0e99,10*
G04 Gerber Generator version 0.2*
G04 Scale: 100 percent, Rotated: No, Reflected: No *
G04 Dimensions in millimeters *
G04 leading zeros omitted , absolute positions ,3 integer and 3 decimal *
%FSLAX33Y33*%
%MOMM*%
G90*
G71D02*

%ADD11C,0.399999*%
%ADD13C,0.619760*%
%ADD14R,0.999998X1.099998*%
%ADD16C,1.879600*%
%ADD18C,2.499995*%

%LPD*%
G54D11*
G01X14478Y9108D02*
G01X16383Y7203D01*
G01X21082Y7203D01*
G01X25420Y2865D01*
G01X25781Y2865D01*
G01X8890Y14694D02*
G01X7236Y14694D01*
G01X5969Y13426D01*
G01X25780Y22856D02*
G01X21557Y18633D01*
G01X20320Y18633D01*
G01X18669Y11775D02*
G01X20320Y13426D01*
G01X20320Y18633D01*
G01X17268Y11775D02*
G01X12954Y11775D01*
G01X11553Y11775D02*
G01X8001Y11775D01*
G01X6858Y11775D01*
G01X17268Y11775D02*
G01X17268Y14573D01*
G01X16891Y14950D01*
G01X16891Y17236D01*
G01X16764Y19903D02*
G01X16764Y23586D01*
G01X16891Y23713D01*
G01X18920Y18633D02*
G01X13355Y18633D01*
G01X10414Y18633D01*
G01X11811Y23713D02*
G01X11811Y18720D01*
G01X11724Y18633D01*
G01X9013Y18633D02*
G01X8890Y18510D01*
G01X8890Y16093D01*
G01X7366Y10375D02*
G01X6473Y10375D01*
G01X5207Y9108D01*
G01X7366Y11775D02*
G01X5160Y11775D01*
G01X2085Y14851D01*
G01X8890Y16093D02*
G01X7366Y16093D01*
G01X4699Y13426D01*
G01X10668Y13426D02*
G01X12954Y15712D01*
G01X15875Y15712D01*
G54D14*
G01X18669Y11775D03*
G01X17269Y11775D03*
G01X20320Y18633D03*
G01X18920Y18633D03*
G01X10414Y18633D03*
G01X9014Y18633D03*
G01X12954Y11775D03*
G01X11554Y11775D03*
G36*
G01X8340Y16594D02*
G01X8340Y15594D01*
G01X9440Y15594D01*
G01X9440Y16594D01*
G01X8340Y16594D01*
G37*
G36*
G01X8340Y15194D02*
G01X8340Y14194D01*
G01X9440Y14194D01*
G01X9440Y15194D01*
G01X8340Y15194D01*
G37*
G36*
G01X6816Y12276D02*
G01X6816Y11276D01*
G01X7916Y11276D01*
G01X7916Y12276D01*
G01X6816Y12276D01*
G37*
G36*
G01X6816Y10876D02*
G01X6816Y9876D01*
G01X7916Y9876D01*
G01X7916Y10876D01*
G01X6816Y10876D01*
G37*
G54D16*
G01X14351Y23713D03*
G01X16891Y23713D03*
G01X11811Y23713D03*
G01X13081Y2631D03*
G01X15621Y2631D03*
G01X18161Y2631D03*
G01X10541Y2631D03*
G36*
G01X24530Y1614D02*
G01X24530Y4114D01*
G01X27030Y4114D01*
G01X27030Y1614D01*
G01X24530Y1614D01*
G37*
G54D18*
G01X25780Y6865D03*
G01X25780Y10860D03*
G01X25780Y14861D03*
G01X25780Y18861D03*
G01X25780Y22857D03*
G01X2043Y2876D03*
G01X2085Y6855D03*
G01X2085Y10851D03*
G01X2085Y14851D03*
G01X2085Y18851D03*
G01X2085Y22847D03*
G54D13*
G01X14478Y9108D03*
G01X16891Y17236D03*
G01X16764Y19903D03*
G01X5969Y13426D03*
G01X5207Y9108D03*
G01X4699Y13426D03*
G01X10668Y13426D03*
G01X15875Y15712D03*
M00*
M02*
