G04 Layer: TopSolderMaskLayer*
G04 EasyEDA v6.1.41, Mon, 03 Jun 2019 03:14:34 GMT*
G04 5a90bc5d05c24feeabf61e1713a7abd1,f719cc3b5e9d4f31bc15a5958a6a0e99,10*
G04 Gerber Generator version 0.2*
G04 Scale: 100 percent, Rotated: No, Reflected: No *
G04 Dimensions in millimeters *
G04 leading zeros omitted , absolute positions ,3 integer and 3 decimal *
%FSLAX33Y33*%
%MOMM*%
G90*
G71D02*

%ADD23C,0.543204*%
%ADD24R,1.203198X1.303198*%
%ADD25C,2.082800*%
%ADD27C,2.703195*%

%LPD*%
G54D23*
G01X12494Y13807D02*
G01X11635Y13807D01*
G01X12494Y13157D02*
G01X11635Y13157D01*
G01X12494Y12507D02*
G01X11635Y12507D01*
G01X17346Y11852D02*
G01X16486Y11852D01*
G01X17346Y12502D02*
G01X16486Y12502D01*
G01X17346Y13152D02*
G01X16486Y13152D01*
G01X17346Y13802D02*
G01X16486Y13802D01*
G01X12494Y11857D02*
G01X11635Y11857D01*
G54D24*
G01X10541Y9362D03*
G01X11941Y9362D03*
G54D25*
G01X14351Y23713D03*
G01X16891Y23713D03*
G01X11811Y23713D03*
G01X13081Y2631D03*
G01X15621Y2631D03*
G01X18161Y2631D03*
G01X10541Y2631D03*
G36*
G01X24429Y1514D02*
G01X24429Y4216D01*
G01X27132Y4216D01*
G01X27132Y1514D01*
G01X24429Y1514D01*
G37*
G54D27*
G01X25780Y6865D03*
G01X25780Y10860D03*
G01X25780Y14861D03*
G01X25780Y18861D03*
G01X25780Y22857D03*
G01X2043Y2876D03*
G01X2085Y6855D03*
G01X2085Y10851D03*
G01X2085Y14851D03*
G01X2085Y18851D03*
G01X2085Y22847D03*
G36*
G01X6967Y5459D02*
G01X6967Y6662D01*
G01X8272Y6662D01*
G01X8272Y5459D01*
G01X6967Y5459D01*
G37*
G36*
G01X6967Y6858D02*
G01X6967Y8062D01*
G01X8272Y8062D01*
G01X8272Y6858D01*
G01X6967Y6858D01*
G37*
G36*
G01X19667Y11555D02*
G01X19667Y12758D01*
G01X20972Y12758D01*
G01X20972Y11555D01*
G01X19667Y11555D01*
G37*
G36*
G01X19667Y12954D02*
G01X19667Y14158D01*
G01X20972Y14158D01*
G01X20972Y12954D01*
G01X19667Y12954D01*
G37*
G54D24*
G01X17145Y9489D03*
G01X18545Y9489D03*
G01X7620Y16220D03*
G01X9020Y16220D03*
G36*
G01X11793Y15619D02*
G01X11793Y16822D01*
G01X13098Y16822D01*
G01X13098Y15619D01*
G01X11793Y15619D01*
G37*
G36*
G01X11793Y17018D02*
G01X11793Y18222D01*
G01X13098Y18222D01*
G01X13098Y17018D01*
G01X11793Y17018D01*
G37*
M00*
M02*
