;Layer: Drill PTH
;EasyEDA v6.1.41, Mon, 03 Jun 2019 03:14:34 GMT
;5a90bc5d05c24feeabf61e1713a7abd1,f719cc3b5e9d4f31bc15a5958a6a0e99,10
;Gerber Generator version 0.2
M48
METRIC,LZ,000.000
;Holesize 1 = 0.305 METRIC
T01C0.305
;Holesize 2 = 1.016 METRIC
T02C1.016
;Holesize 3 = 1.501 METRIC
T03C1.501
%
G05
G90
T01
X+014478Y+009108
X+016891Y+017236
X+016764Y+019903
X+005969Y+013426
X+005207Y+009108
X+004699Y+013426
X+010668Y+013426
X+015875Y+015712
T02
X+014351Y+023713
X+016891Y+023713
X+011811Y+023713
X+013081Y+002631
X+015621Y+002631
X+018161Y+002631
X+010541Y+002631
T03
X+025780Y+002864
X+025780Y+006865
X+025780Y+010860
X+025780Y+014861
X+025780Y+018861
X+025780Y+022857
X+002043Y+002876
X+002085Y+006855
X+002085Y+010851
X+002085Y+014851
X+002085Y+018851
X+002085Y+022847
M30
